<?xml version="1.0" standalone="no"?>
<!DOCTYPE svg PUBLIC "-//W3C//DTD SVG 20010904//EN"
 "http://www.w3.org/TR/2001/REC-SVG-20010904/DTD/svg10.dtd">
<svg version="1.0" xmlns="http://www.w3.org/2000/svg"
 width="560.000000pt" height="560.000000pt" viewBox="0 0 560.000000 560.000000"
 preserveAspectRatio="xMidYMid meet">
<metadata>
Created by potrace 1.14, written by Peter Selinger 2001-2017
</metadata>
<g transform="translate(0.000000,560.000000) scale(0.100000,-0.100000)"
fill="#000000" stroke="none">
<path d="M102 2819 l3 -2782 480 1 c264 1 487 1 496 1 14 1 16 158 17 1709 0
939 1 1712 1 1718 1 6 72 58 159 115 86 57 159 106 162 109 14 14 132 90 139
90 5 0 11 4 13 8 2 4 134 95 293 201 160 107 295 199 302 205 9 8 -62 61 -293
216 -167 113 -312 210 -322 215 -9 6 -19 12 -22 15 -11 12 -133 90 -140 90 -5
0 -10 4 -12 8 -1 5 -178 125 -393 269 -214 143 -472 316 -572 384 -101 68
-191 129 -200 134 -10 6 -39 25 -66 43 l-47 33 2 -2782z"/>
<path d="M4413 3178 l2 -2412 115 -77 c63 -43 120 -82 125 -87 6 -5 15 -11 20
-13 16 -7 129 -83 144 -97 7 -7 30 -21 50 -32 21 -10 43 -26 50 -34 8 -9 19
-16 26 -16 8 0 15 -3 17 -7 3 -9 126 -93 134 -93 3 0 12 -6 19 -13 29 -25 44
-37 49 -37 5 0 91 -56 111 -72 9 -8 185 -125 211 -141 8 -4 11 654 10 2410
l-1 2416 -435 293 c-239 162 -444 298 -455 304 -11 5 -55 34 -98 65 -42 30
-81 55 -86 55 -6 0 -9 -936 -8 -2412z"/>
<path d="M2359 4073 c0 -4 -1 -451 -2 -992 -1 -644 1 -988 8 -996 8 -10 284
-197 473 -320 20 -14 42 -28 47 -33 21 -17 106 -72 111 -72 5 0 18 -10 47 -36
7 -6 17 -13 23 -15 18 -7 189 -124 192 -131 2 -5 8 -8 13 -8 9 0 65 -36 79
-50 16 -16 90 -59 91 -53 0 5 2 455 2 1002 2 881 0 994 -13 1000 -14 6 -122
75 -145 94 -12 9 -90 61 -145 97 -21 14 -65 43 -97 65 -32 22 -65 45 -75 50
-9 6 -37 25 -63 43 -25 17 -50 32 -56 32 -5 0 -9 4 -9 8 0 5 -12 15 -27 23
-16 8 -30 16 -33 19 -13 14 -160 110 -169 110 -5 0 -11 4 -13 8 -1 5 -50 40
-108 79 -130 86 -130 86 -131 76z"/>
</g>
</svg>
